<?xml version="1.0" standalone="no"?><!DOCTYPE svg PUBLIC "-//W3C//DTD SVG 1.1//EN" "http://www.w3.org/Graphics/SVG/1.1/DTD/svg11.dtd"><svg class="icon" width="200px" height="200.00px" viewBox="0 0 1024 1024" version="1.1" xmlns="http://www.w3.org/2000/svg"><path d="M170.112 90.432c-14.144-9.472-42.432-14.208-84.992-14.208V16h442.816c47.296 0 87.424 2.368 120.448 7.104h14.272c40.128 9.408 75.52 23.616 106.24 42.56l35.52 28.288c25.856 21.312 47.232 49.6 63.616 85.056 0 4.672 1.28 9.408 3.648 14.144 16.512 63.808 21.248 116.928 14.144 159.424-9.344 42.56-33.152 75.584-70.848 99.264-16.512 9.408-36.48 17.664-60.096 24.768l-70.848 14.208h3.52c84.992 18.88 144.128 42.56 177.152 70.848 28.352 25.92 48.512 56.704 60.224 92.032 9.472 21.312 14.144 44.864 14.144 70.848v10.688c0 75.584-27.136 136.96-81.344 184.192a315.712 315.712 0 0 1-46.144 31.872 329.536 329.536 0 0 1-109.888 42.496c-16.512 4.672-34.24 8.32-53.12 10.688l-563.456 3.52v-53.12c42.56 0 70.848-3.584 85.056-10.624 16.512-7.104 28.352-17.664 35.456-31.872 4.736-9.472 7.04-29.568 7.04-60.224v-14.144V189.632c0-37.76-2.368-61.44-7.04-70.848-7.104-11.84-18.944-21.312-35.52-28.352z m258.688 14.144v364.928h35.456c47.168-2.368 83.904-9.408 109.76-21.248 30.656-14.144 53.12-35.456 67.392-63.808 16.512-25.984 24.768-59.072 24.768-99.2v-7.104-10.624c-2.368-35.456-10.624-63.744-24.768-85.056-14.272-25.984-36.672-46.08-67.392-60.224-25.92-11.712-62.592-17.664-109.824-17.664H428.8z m0 418.112v336.576c0 23.552 5.888 41.344 17.728 53.12 11.776 14.208 30.72 21.248 56.704 21.248 37.76 0 72.064-8.32 102.72-24.832a177.792 177.792 0 0 0 67.328-70.784c14.144-30.72 22.4-62.656 24.768-95.68v-10.688a209.28 209.28 0 0 0-31.872-113.344c-14.144-28.352-30.72-49.536-49.6-63.808l-24.832-10.56-3.52-3.584c-28.352-11.84-69.76-17.728-124.032-17.728l-35.392 0.064z" fill="#626264" /></svg>