<?xml version="1.0" standalone="no"?><!DOCTYPE svg PUBLIC "-//W3C//DTD SVG 1.1//EN" "http://www.w3.org/Graphics/SVG/1.1/DTD/svg11.dtd"><svg class="icon" width="200px" height="200.00px" viewBox="0 0 1024 1024" version="1.1" xmlns="http://www.w3.org/2000/svg"><path d="M46.592 537.216c-6.528 0-13.056-2.56-18.048-7.552-9.984-9.984-9.984-26.24 0-36.224L289.024 232.96c9.984-9.984 26.24-9.984 36.224 0 9.984 9.984 9.984 26.24 0 36.224L64.64 529.792c-4.992 4.992-11.52 7.424-18.048 7.424z"  /><path d="M305.664 798.592c-6.656 0-13.184-2.56-18.176-7.552L28.416 528.896c-9.984-10.112-9.856-26.24 0.256-36.224 10.112-9.984 26.24-9.856 36.224 0.256L323.84 754.944c9.984 10.112 9.856 26.24-0.256 36.224-4.864 4.864-11.392 7.424-17.92 7.424zM977.408 537.216c-6.528 0-13.056-2.56-18.048-7.552L698.752 269.184c-9.984-9.984-9.984-26.24 0-36.224 9.984-9.984 26.24-9.984 36.224 0l260.608 260.608c9.984 9.984 9.984 26.24 0 36.224-4.992 4.992-11.648 7.424-18.176 7.424z"  /><path d="M718.336 798.592c-6.528 0-13.056-2.432-18.048-7.424-10.112-9.984-10.112-26.112-0.256-36.224l259.072-262.016c9.984-10.112 26.112-10.112 36.224-0.256 10.112 9.984 10.112 26.112 0.256 36.224L736.512 790.912c-4.992 5.12-11.648 7.68-18.176 7.68z"  /><path d="M425.344 775.808c-2.944 0-5.888-0.512-8.704-1.536-13.312-4.864-20.096-19.584-15.36-32.768L574.72 265.088c4.864-13.312 19.584-20.096 32.768-15.36 13.312 4.864 20.096 19.584 15.36 32.768L449.408 758.912c-3.84 10.368-13.696 16.896-24.064 16.896z"  /></svg>