<?xml version="1.0" standalone="no"?><!DOCTYPE svg PUBLIC "-//W3C//DTD SVG 1.1//EN" "http://www.w3.org/Graphics/SVG/1.1/DTD/svg11.dtd"><svg class="icon" width="200px" height="200.00px" viewBox="0 0 1024 1024" version="1.1" xmlns="http://www.w3.org/2000/svg"><path d="M320 467.2h384V230.4v-51.2c0-12.8 0-25.6-6.4-32 0-6.4-6.4-12.8-12.8-19.2-6.4-6.4-12.8-6.4-19.2-12.8-19.2-12.8-38.4-12.8-57.6-12.8H576V64h352v38.4h-57.6c-6.4 0-19.2 6.4-25.6 6.4-6.4 6.4-12.8 6.4-19.2 12.8 12.8 12.8 6.4 19.2 6.4 25.6-6.4 12.8-6.4 44.8-6.4 83.2v608c0 12.8 0 25.6 6.4 32 0 6.4 6.4 12.8 12.8 19.2 6.4 6.4 12.8 6.4 19.2 12.8 19.2 12.8 38.4 12.8 57.6 12.8h32v44.8H588.8v-38.4h32c32 0 57.6-12.8 76.8-32 12.8-12.8 12.8-44.8 12.8-96V544H320v300.8c0 12.8 0 25.6 6.4 32 0 6.4 6.4 12.8 12.8 19.2 6.4 6.4 12.8 6.4 19.2 12.8 19.2 12.8 38.4 12.8 57.6 12.8H448v38.4H83.2v-38.4h32c32 0 57.6-12.8 76.8-32 6.4-12.8 12.8-44.8 12.8-96V230.4v-51.2c0-12.8 0-25.6-6.4-32 0-6.4-6.4-12.8-12.8-19.2 0 0-6.4-6.4-12.8-6.4-19.2-12.8-38.4-19.2-57.6-19.2h-32V64h352v38.4h-25.6c-19.2 0-32 6.4-51.2 12.8-12.8 6.4-25.6 19.2-32 32 0 12.8-6.4 44.8-6.4 83.2v249.6-12.8z" fill="#040000" /><path d="M64 940.8a19.2 19.2 0 1 0 38.4 0 19.2 19.2 0 1 0-38.4 0Z" fill="#040000" /><path d="M416 940.8a19.2 19.2 0 1 0 38.4 0 19.2 19.2 0 1 0-38.4 0Z" fill="#040000" /><path d="M569.6 940.8a19.2 19.2 0 1 0 38.4 0 19.2 19.2 0 1 0-38.4 0Z" fill="#040000" /><path d="M921.6 940.8a19.2 19.2 0 1 0 38.4 0 19.2 19.2 0 1 0-38.4 0Z" fill="#040000" /><path d="M64 83.2a19.2 19.2 0 1 0 38.4 0 19.2 19.2 0 1 0-38.4 0Z" fill="#040000" /><path d="M416 83.2a19.2 19.2 0 1 0 38.4 0 19.2 19.2 0 1 0-38.4 0Z" fill="#040000" /><path d="M569.6 83.2a19.2 19.2 0 1 0 38.4 0 19.2 19.2 0 1 0-38.4 0Z" fill="#040000" /><path d="M921.6 83.2a19.2 19.2 0 1 0 38.4 0 19.2 19.2 0 1 0-38.4 0Z" fill="#040000" /></svg>