<?xml version="1.0" standalone="no"?><!DOCTYPE svg PUBLIC "-//W3C//DTD SVG 1.1//EN" "http://www.w3.org/Graphics/SVG/1.1/DTD/svg11.dtd"><svg class="icon" width="200px" height="200.00px" viewBox="0 0 1024 1024" version="1.1" xmlns="http://www.w3.org/2000/svg"><path d="M761.792 54.976c-21.312 9.408-37.888 22.4-49.664 38.912-2.368 3.84-4.672 8.576-7.04 14.208-10.944 21.952-23.936 57.344-38.912 106.304l-170.048 598.72c-16.576 54.336-24.832 88.576-24.832 102.72 0 14.144 3.584 25.984 10.624 35.456 4.736 7.04 14.208 12.992 28.288 17.728 14.208 4.672 42.496 8.192 85.056 10.56l-10.624 28.416H184.32l7.04-28.352c40.128-2.368 66.112-5.888 77.952-10.56 13.44-4.48 25.28-10.368 35.456-17.728a114.56 114.56 0 0 0 14.208-14.208c14.144-23.552 30.656-64.96 49.536-124.032L538.56 214.4c15.04-45.248 23.296-80.64 24.832-106.304v-7.04a33.664 33.664 0 0 0-14.144-28.352 44.672 44.672 0 0 0-24.896-21.248C510.208 44.288 484.224 40.768 446.464 40.768L457.088 16h382.656l-7.04 24.768c-33.152 0-56.768 4.8-70.912 14.208z" fill="#626264" /></svg>