<?xml version="1.0" standalone="no"?><!DOCTYPE svg PUBLIC "-//W3C//DTD SVG 1.1//EN" "http://www.w3.org/Graphics/SVG/1.1/DTD/svg11.dtd"><svg class="icon" width="200px" height="200.00px" viewBox="0 0 1024 1024" version="1.1" xmlns="http://www.w3.org/2000/svg"><path d="M484.26666667 328.53333333c-19.2 12.8-44.8 12.8-64-6.4-19.2-12.8-19.2-44.8-6.4-64l102.4-102.4c96-96 249.6-89.6 345.6 0s96 249.6 0 345.6l-108.8 102.4c-12.8 12.8-32 19.2-51.2 12.8s-19.2-12.8-25.6-25.6c-6.4-19.2 0-38.4 12.8-51.2l102.4-102.4c57.6-57.6 51.2-147.2-6.4-204.8-57.6-57.6-147.2-57.6-204.8-6.4L484.26666667 328.53333333zM554.66666667 680.53333333c12.8-12.8 32-25.6 51.2-19.2 19.2 6.4 32 19.2 38.4 38.4 6.4 19.2 0 38.4-19.2 51.2L522.66666667 853.33333333c-96 89.6-249.6 83.2-339.2-6.4S81.06666667 603.73333333 170.66666667 507.73333333L273.06666667 405.33333333c12.8-19.2 32-25.6 51.2-19.2s32 12.8 38.4 32c6.4 19.2 0 38.4-19.2 51.2L241.06666667 578.13333333c-57.6 57.6-57.6 147.2 0 204.8 57.6 57.6 147.2 57.6 204.8 6.4L554.66666667 680.53333333zM433.06666667 661.33333333c-12.8 12.8-32 19.2-51.2 12.8s-32-12.8-38.4-32c0-19.2 6.4-38.4 19.2-44.8l243.2-243.2c19.2-19.2 51.2-12.8 70.4 0 19.2 19.2 19.2 44.8 0 70.4L433.06666667 661.33333333z" fill="#888888" /></svg>