<?xml version="1.0" standalone="no"?><!DOCTYPE svg PUBLIC "-//W3C//DTD SVG 1.1//EN" "http://www.w3.org/Graphics/SVG/1.1/DTD/svg11.dtd"><svg class="icon" width="200px" height="200.00px" viewBox="0 0 1024 1024" version="1.1" xmlns="http://www.w3.org/2000/svg"><path d="M928.914286 95.085714H95.085714C43.885714 95.085714 0 138.971429 0 193.828571v640c0 51.2 43.885714 95.085714 95.085714 95.085715h830.171429a99.913143 99.913143 0 0 0 98.742857-98.742857V193.828571c0-54.857143-43.885714-98.742857-95.085714-98.742857z m14.628571 640l-201.142857-266.971428s-10.971429-21.942857-51.2-21.942857c-47.542857 0-62.171429 21.942857-62.171429 21.942857l-175.542857 270.628571s-10.971429 18.285714-32.914285 18.285714c-25.6 0-36.571429-18.285714-36.571429-18.285714L292.571429 632.685714s-21.942857-32.914286-54.857143-32.914285c-29.257143 0-54.857143 32.914286-54.857143 32.914285l-102.4 128V208.457143c0-18.285714 14.628571-32.914286 32.914286-32.914286H914.285714c18.285714 0 32.914286 14.628571 32.914286 32.914286l-3.657143 526.628571z m-479.085714-351.085714c0 62.171429-51.2 113.371429-113.371429 113.371429-62.171429 0-113.371429-51.2-113.371428-113.371429 0-62.171429 51.2-113.371429 113.371428-113.371429 62.171429 0 113.371429 51.2 113.371429 113.371429z m0 0"  /></svg>