<?xml version="1.0" standalone="no"?><!DOCTYPE svg PUBLIC "-//W3C//DTD SVG 1.1//EN" "http://www.w3.org/Graphics/SVG/1.1/DTD/svg11.dtd"><svg class="icon" width="200px" height="200.00px" viewBox="0 0 1024 1024" version="1.1" xmlns="http://www.w3.org/2000/svg"><path d="M646.4 492.8s-256-32-256-160c0-64 51.2-96 134.4-96s115.2 38.4 121.6 51.2c6.4 12.8 12.8 25.6 19.2 44.8l96-19.2c-6.4-25.6-12.8-51.2-25.6-70.4s-70.4-89.6-211.2-89.6-236.8 83.2-236.8 185.6 83.2 147.2 83.2 147.2H70.4v64h486.4s115.2 19.2 115.2 115.2c0 89.6-70.4 115.2-153.6 115.2-115.2 0-160-83.2-172.8-115.2l-96 19.2c19.2 64 64 179.2 262.4 179.2 236.8 0 249.6-172.8 249.6-204.8 0-83.2-38.4-115.2-38.4-115.2h217.6v-51.2h-294.4z" /></svg>