<?xml version="1.0" standalone="no"?><!DOCTYPE svg PUBLIC "-//W3C//DTD SVG 1.1//EN" "http://www.w3.org/Graphics/SVG/1.1/DTD/svg11.dtd"><svg class="icon" width="200px" height="185.84px" viewBox="0 0 1102 1024" version="1.1" xmlns="http://www.w3.org/2000/svg"><path d="M953.346153656006 135.55769268798832h-817.7884609680175c-25.96153820800781 0-45.43269268798828 19.47115365600586-45.43269268798828 45.43269186401367v707.4519227600098c0 25.96153820800781 19.47115365600586 45.43269268798828 45.43269268798828 45.43269268798828h817.7884609680175c25.96153820800781 0 45.43269268798828-19.47115365600586 45.43269268798828-45.43269268798828v-707.4519227600098c0-25.96153820800781-19.47115365600586-45.43269268798828-45.43269268798828-45.43269186401367z m-577.6442308959961 739.9038455200196h-227.1634609680176v-155.7692308959961h227.1634609680176v155.7692308959961z m0-207.69230731201174h-227.1634609680176v-155.7692308959961h227.1634609680176v155.7692308959961z m0-207.69230813598634h-227.1634609680176v-155.76923007202146h227.1634609680176v155.76923007202146z m279.0865390319824 415.38461544799804h-227.16346179199223v-155.7692308959961h227.16346179199223v155.7692308959961z m0-207.69230731201174h-227.16346179199223v-155.7692308959961h227.16346179199223v155.7692308959961z m0-207.69230813598634h-227.16346179199223v-155.76923007202146h227.16346179199223v155.76923007202146z m285.5769227600098 415.38461544799804h-227.16346179199223v-155.7692308959961h227.16346179199223v155.7692308959961z m0-207.69230731201174h-227.16346179199223v-155.7692308959961h227.16346179199223v155.7692308959961z m0-207.69230813598634h-227.16346179199223v-155.76923007202146h227.16346179199223v155.76923007202146z" /></svg>