<?xml version="1.0" standalone="no"?><!DOCTYPE svg PUBLIC "-//W3C//DTD SVG 1.1//EN" "http://www.w3.org/Graphics/SVG/1.1/DTD/svg11.dtd"><svg class="icon" width="200px" height="200.00px" viewBox="0 0 1024 1024" version="1.1" xmlns="http://www.w3.org/2000/svg"><path d="M245.785859 771.749495h557.252525v46.416162h-557.252525v-46.416162z m0-557.252525h239.967676v36.460606l-51.846464 3.620202-11.89495 10.60202v261.818182c0 49.907071 10.60202 85.591919 31.806061 106.925252 21.20404 21.462626 55.983838 32.064646 104.468687 32.064647 44.606061 0 76.929293-11.377778 96.969697-34.133334 20.040404-22.755556 29.99596-59.991919 29.995959-111.838383V268.153535l-12.670707-12.8-53.39798-4.395959v-36.460606h189.802021v36.460606l-51.070707 4.395959-11.377778 12.8v259.620202c0 69.430303-17.454545 119.59596-52.234344 150.755556-34.779798 31.159596-91.022222 46.674747-168.597979 46.674747-40.59798 0-76.153535-5.30101-106.666667-15.90303-30.642424-10.60202-54.561616-25.729293-72.016162-45.511111-13.317172-15.515152-22.755556-33.357576-28.315151-53.527273-5.559596-20.040404-8.40404-48.872727-8.404041-86.367677v-258.585858l-11.894949-10.60202-52.622222-3.620202v-36.589899z m0 0" /></svg>