<?xml version="1.0" standalone="no"?><!DOCTYPE svg PUBLIC "-//W3C//DTD SVG 1.1//EN" "http://www.w3.org/Graphics/SVG/1.1/DTD/svg11.dtd"><svg class="icon" width="200px" height="200.00px" viewBox="0 0 1024 1024" version="1.1" xmlns="http://www.w3.org/2000/svg"><path d="M850.473 744.22H389.725c-30.742 1.487-54.893 26.848-54.893 57.63 0 30.773 24.151 56.135 54.893 57.622h460.748c31.804 0 57.632-25.8 57.632-57.623 0-31.828-25.828-57.63-57.632-57.63zM389.725 283.557h460.748c31.804 0 57.605-25.786 57.605-57.59 0-31.812-25.8-57.594-57.605-57.594H389.725c-31.008 1.062-55.636 26.536-55.636 57.593-0.001 31.055 24.628 56.526 55.636 57.591z m0 287.994h460.748c31.036-1.065 55.665-26.536 55.665-57.593 0-31.06-24.63-56.529-55.665-57.598H389.725a57.598 57.598 0 0 0-51.52 28.211 57.643 57.643 0 0 0 0 58.763 57.59 57.59 0 0 0 51.52 28.217zM181.79 163.742c-36.374 0-65.895 29.496-65.895 65.889 0 36.389 29.52 65.884 65.895 65.884s65.892-29.495 65.892-65.884c0.001-36.393-29.516-65.889-65.892-65.889z m0 301.196c-36.374 0-65.895 29.496-65.895 65.889 0 36.389 29.52 65.888 65.895 65.888s65.892-29.5 65.892-65.888c0.001-36.393-29.516-65.889-65.892-65.889z m0 263.55c-36.374 0-65.895 29.495-65.895 65.888 0 36.385 29.52 65.882 65.895 65.882s65.892-29.496 65.892-65.882c0.001-36.393-29.516-65.888-65.892-65.888z" /></svg>